<?xml version="1.0" encoding="UTF-8"?>
<svg width="16px" height="16px" viewBox="0 0 16 16" version="1.1" xmlns="http://www.w3.org/2000/svg" xmlns:xlink="http://www.w3.org/1999/xlink">
    <!-- Generator: Sketch 58 (84663) - https://sketch.com -->
    <title>ic-close</title>
    <desc>Created with Sketch.</desc>
    <g id="Page-1" stroke="none" stroke-width="1" fill="none" fill-rule="evenodd">
        <g id="Head-dashboard-1368" transform="translate(-959.000000, -483.000000)" fill="#000000" fill-rule="nonzero">
            <g id="Group-5" transform="translate(646.000000, 467.000000)">
                <g id="ic-close" transform="translate(313.000000, 16.000000)">
                    <path d="M13.3976686,0.0957257143 C13.2700343,-0.0319085714 13.06112,-0.0319085714 12.9334857,0.0957257143 L8.19730286,4.83190857 C8.06966857,4.95954286 7.86075429,4.95954286 7.73312,4.83190857 L2.99702857,0.0957257143 C2.86939429,-0.0319085714 2.66048,-0.0319085714 2.53284571,0.0957257143 L0.0957257143,2.53275429 C-0.0319085714,2.66038857 -0.0319085714,2.86930286 0.0957257143,2.99693714 L4.83190857,7.73312 C4.95954286,7.86075429 4.95954286,8.06966857 4.83190857,8.19730286 L0.0957257143,12.9334857 C-0.0319085714,13.06112 -0.0319085714,13.2700343 0.0957257143,13.3976686 L2.53275429,15.8346971 C2.66038857,15.9623314 2.86930286,15.9623314 2.99693714,15.8346971 L7.73312,11.0985143 C7.86075429,10.97088 8.06966857,10.97088 8.19730286,11.0985143 L12.9333943,15.8346057 C13.0610286,15.96224 13.2699429,15.96224 13.3975771,15.8346057 L15.8346057,13.3975771 C15.96224,13.2699429 15.96224,13.0610286 15.8346057,12.9333943 L11.0985143,8.19730286 C10.97088,8.06966857 10.97088,7.86075429 11.0985143,7.73312 L15.8346057,2.99702857 C15.96224,2.86939429 15.96224,2.66048 15.8346057,2.53284571 L13.3976686,0.0957257143 Z" id="Path"></path>
                </g>
            </g>
        </g>
    </g>
</svg>