<svg xmlns="http://www.w3.org/2000/svg" width="64" height="64" viewBox="0 0 64 64" fill="#ffffff">
<defs>
  <style>
    .a {
    fill: none;
    }
  </style>
</defs>
<title>culture_outline</title>
<rect class="a" width="64" height="64"/>
<path d="M40.17,23.09h0l-.1-.1c-.1,0-4.4-2.7-12.2-2.7a40.29,40.29,0,0,0-6.6.6c-12,2.1-16.8,8.3-16.9,8.4v.2c0,.1,1.3,6.4,3,12.7A23.26,23.26,0,0,0,28,59.89h.3c1.2-.2,14.8-7,13.6-23.8C41.27,29.59,40.17,23.19,40.17,23.09Zm-12.5,33.8a20.3,20.3,0,0,1-17.4-15.5c-1.2-4.5-2.2-9-2.7-11.1,1.7-1.6,6.1-5,14.2-6.4a32.32,32.32,0,0,1,6.1-.6,26.83,26.83,0,0,1,9.6,1.7c.3,2.2,1,6.7,1.3,11.3A20.77,20.77,0,0,1,27.67,56.89Zm4.5-38.3a23.25,23.25,0,0,1,2.8.5.75.75,0,0,0,.4-.1,3.36,3.36,0,0,0,2-4.4c-.7-1.8-7.1.6-6.5,2.4A4,4,0,0,0,32.17,18.59Zm18.6,1.9c1.2-1.5-4.1-5.9-5.3-4.4a3.58,3.58,0,0,0,.4,4.9A3.49,3.49,0,0,0,50.77,20.49Zm-7.7,8.7c.2,1.6.4,3.3.5,5l2.9.5C46.87,32.69,45.47,30.49,43.07,29.19Zm17.3-16.1c0-.1-4.9-6.3-16.9-8.6a46.15,46.15,0,0,0-7-.6c-7.6,0-11.8,2.6-11.8,2.6l-.1.1c0,.1-.9,5.9-1.6,12l3-.3c.4-3.9,1-7.8,1.3-9.8a25.63,25.63,0,0,1,9.2-1.6,34.43,34.43,0,0,1,6.3.6,29.14,29.14,0,0,1,14.3,6.6c-.5,2.2-1.4,6.6-2.7,11a20.49,20.49,0,0,1-10.6,13.2c0,1.2-.1,2.4-.2,3.5A23.87,23.87,0,0,0,57.27,26c1.8-6.2,3.1-12.6,3.1-12.7v-.2ZM20,34a3.45,3.45,0,1,0-2.8,4A3.54,3.54,0,0,0,20,34Zm9.9-5.3a3.45,3.45,0,1,0,4,2.8A3.43,3.43,0,0,0,29.87,28.69ZM18,47c.5,2.9,4.4,4.7,8.6,4s7.3-3.7,6.8-6.7Z"/>
</svg>
