<svg xmlns="http://www.w3.org/2000/svg" width="64" height="64" viewBox="0 0 64 64" fill="#ffffff">
    <defs>
        <style>.cls-1{fill:none;}</style>
    </defs>
    <title>handshake</title>
    <g id="Asset">
        <rect class="cls-1" width="64" height="64"/>
    </g>
    <g id="Icons">
        <path d="M56.12,33.1l6.4-3.6L52.82,12l-6.1,3.4h-7.9l-5.9-3.3L17.22,15,12,12,2.32,29.5l7.6,4.3a4.6,4.6,0,0,0-.6,6.1,4.15,4.15,0,0,0,2.6,1.7,6.31,6.31,0,0,0,.8,2.3,4.16,4.16,0,0,0,3,1.8h.9a3.1,3.1,0,0,0,.6,1.3,4.69,4.69,0,0,0,3.7,1.9,5,5,0,0,0,1.2-.2c.1.2.3.5.4.7a4.41,4.41,0,0,0,3.6,1.8,4.32,4.32,0,0,0,2.6-.9l.4-.3,5.8,3.2h0a4.65,4.65,0,0,0,2.3.6,5.9,5.9,0,0,0,1.4-.2,5.13,5.13,0,0,0,2.9-2.3,4.42,4.42,0,0,0,.5-1.5h.3a5.9,5.9,0,0,0,1.4-.2,5.13,5.13,0,0,0,2.9-2.3,5,5,0,0,0,.5-1.3c.3,0,.5.1.8.1a5.9,5.9,0,0,0,1.4-.2,5.13,5.13,0,0,0,2.9-2.3,4.42,4.42,0,0,0,.5-1.5h.2a5.11,5.11,0,0,0,4.4-2.5A4.73,4.73,0,0,0,56.12,33.1Zm-8.6-14.6,4.2-2.3,6.8,12.2-5.4,3-12.3-6.8-.7.4-7,3.7a7.4,7.4,0,0,1-3.6.9c-2.4,0-4.4-1-5.1-2l-.1-.1a13.49,13.49,0,0,0,4.2-1.5c2.2-1.2,7.5-5.9,9.1-7.4ZM13.12,38.9h0a1.91,1.91,0,0,1-1.4-.7,1.75,1.75,0,0,1,.4-2.4l3.3-2.4a1.69,1.69,0,0,1,1-.3,1.91,1.91,0,0,1,1.4.7,1.75,1.75,0,0,1-.4,2.4l-3.3,2.4A1.93,1.93,0,0,1,13.12,38.9Zm4.4,3.7a1.69,1.69,0,0,1-1,.3,1.91,1.91,0,0,1-1.4-.7,1.52,1.52,0,0,1-.3-1.3,1.9,1.9,0,0,1,.7-1.1l4.3-3.1a1.69,1.69,0,0,1,1-.3,1.91,1.91,0,0,1,1.4.7,1.75,1.75,0,0,1-.4,2.4ZM22,45.8a1.69,1.69,0,0,1-1,.3h0a1.91,1.91,0,0,1-1.4-.7A1.75,1.75,0,0,1,20,43l3.3-2.4a1.69,1.69,0,0,1,1-.3,1.91,1.91,0,0,1,1.4.7,1.75,1.75,0,0,1-.4,2.4Zm5.1,2.4a1.61,1.61,0,0,1-.9.3,1.31,1.31,0,0,1-1.2-.6,1.55,1.55,0,0,1,.3-2.1l2.1-1.5a1.61,1.61,0,0,1,.9-.3,1.31,1.31,0,0,1,1.2.6,1.55,1.55,0,0,1-.3,2.1Zm27.8-10a1.91,1.91,0,0,1-2.3.9h0l-2.4-1.4h0l-8.9-4.9-1,1.8,8.9,4.9h0a2.16,2.16,0,0,1,.7,2.7,1.86,1.86,0,0,1-1.2.9,2.2,2.2,0,0,1-1.4-.1h0l-3.5-1.9h0l-5.4-3-1,1.8,6.2,3.5h0a1.71,1.71,0,0,1,.8,1.2,1.94,1.94,0,0,1-.2,1.5A1.86,1.86,0,0,1,43,47a2.44,2.44,0,0,1-1.2,0h0l-3.3-2h0l-3.1-1.7-1,1.8,4,2.2h0a2.16,2.16,0,0,1,.7,2.7,1.86,1.86,0,0,1-1.2.9,1.69,1.69,0,0,1-1.4-.1h0l-4.7-2.6h0a4.49,4.49,0,0,0,.1-5.4A4.29,4.29,0,0,0,29,41h-.3a3.81,3.81,0,0,0-.8-1.7,4.43,4.43,0,0,0-2.6-1.7,6.31,6.31,0,0,0-.8-2.3,4.6,4.6,0,0,0-3.8-1.9A3.69,3.69,0,0,0,20,32a4.53,4.53,0,0,0-6.4-1l-1,.7-6.2-3.3,6.8-12.2,3.5,2,15.6-2.8,2.6,1.5c-2.3,2.1-6.4,5.7-8,6.5a22.55,22.55,0,0,1-5.6,1.7L21,26a3.82,3.82,0,0,0,.8,3.5c1.5,2,4.4,3.2,7.5,3.2a11.25,11.25,0,0,0,5.1-1.2c2.5-1.3,5.1-2.7,6.3-3.3L53.12,35h0l1.2.7h0C55.12,35.9,55.42,37.3,54.92,38.2Z"/>
    </g>
</svg>