<svg xmlns="http://www.w3.org/2000/svg" width="64" height="64" viewBox="0 0 64 64" fill="#ffffff">
  <defs>
    <style>
      .a {
        fill: none;
      }
    </style>
  </defs>
  <title>internet_outline</title>
  <rect class="a" width="64" height="64"/>
  <path d="M32,4A28,28,0,1,0,60,32,28,28,0,0,0,32,4Zm1,53V46H43.92a35.71,35.71,0,0,1-6.84,10.48A25,25,0,0,1,33,57Zm-6.08-.49A35.58,35.58,0,0,1,20.11,46H31V57A25,25,0,0,1,26.92,56.48ZM7,33H15.3a38,38,0,0,0,1.92,11H10.08A24.82,24.82,0,0,1,7,33ZM31,7V18H20.12A35.59,35.59,0,0,1,27,7.51,24.85,24.85,0,0,1,31,7Zm6,.49A35.7,35.7,0,0,1,43.91,18H33V7A25,25,0,0,1,37,7.51ZM44.69,20a35.78,35.78,0,0,1,2,11H33V20ZM31,20V31H17.3a36,36,0,0,1,2-11ZM15.3,31H7a24.82,24.82,0,0,1,3.05-11h7.15A38,38,0,0,0,15.3,31Zm2,2H31V44H19.33A36,36,0,0,1,17.3,33ZM33,44V33H46.72a35.81,35.81,0,0,1-2,11ZM48.72,33H57a24.82,24.82,0,0,1-3,11H46.81A37.84,37.84,0,0,0,48.72,33Zm0-2A37.8,37.8,0,0,0,46.8,20h7.13A24.83,24.83,0,0,1,57,31Zm4-13H46.07a37.51,37.51,0,0,0-5.52-9.49A25.14,25.14,0,0,1,52.7,18ZM23.46,8.51A37.52,37.52,0,0,0,18,18H11.3A25.13,25.13,0,0,1,23.46,8.51ZM11.3,46h6.64a37.52,37.52,0,0,0,5.48,9.48A25.14,25.14,0,0,1,11.3,46Zm29.28,9.48A37.51,37.51,0,0,0,46.08,46H52.7A25.14,25.14,0,0,1,40.58,55.48Z"/>
</svg>
