<svg xmlns="http://www.w3.org/2000/svg" width="64" height="64" viewBox="0 0 64 64" fill="#262626">
  <defs>
    <style>
      .a {
        fill: none;
      }
    </style>
  </defs>
  <title>search_outline</title>
  <rect class="a" width="64" height="64"/>
  <path d="M37,7a20,20,0,0,1,0,40,19.46,19.46,0,0,1-11.6-3.82h-.12a18.57,18.57,0,0,1-4.54-4.47A20,20,0,0,1,37,7m0-3A23,23,0,0,0,18.3,40.4a21.81,21.81,0,0,0,5.3,5.2A22.41,22.41,0,0,0,37,50,23,23,0,0,0,37,4ZM17.37,42.41,4.9,54.87A3,3,0,1,0,9,59.26l.15-.15,12.5-12.49A23.88,23.88,0,0,1,17.37,42.41Z"/>
</svg>
