<?xml version="1.0" encoding="UTF-8"?>
<svg width="23px" height="24px" viewBox="0 0 23 24" version="1.1" xmlns="http://www.w3.org/2000/svg" xmlns:xlink="http://www.w3.org/1999/xlink">
    <!-- Generator: sketchtool 52.1 (67048) - http://www.bohemiancoding.com/sketch -->
    <title>BA2E49D2-B727-4B28-8C2C-D98FD668FE18</title>
    <desc>Created with sketchtool.</desc>
    <g id="#7-Organization-Profile" stroke="none" stroke-width="1" fill="none" fill-rule="evenodd">
        <g id="Protected---Profile---S-" transform="translate(-19.000000, -1310.000000)">
            <rect fill="#F8F8F8" x="0" y="0" width="336" height="2771"></rect>
            <g id="Profil" transform="translate(0.000000, 81.000000)">
                <rect id="Rectangle-7" fill="#FFFFFF" fill-rule="nonzero" x="0" y="37" width="337" height="1439"></rect>
                <g id="SocialMedia/Links" transform="translate(18.000000, 1229.000000)" fill="#262626">
                    <g transform="translate(1.000000, 0.000000)" id="Icons/barbecue/solid">
                        <g>
                            <path d="M11.8836421,17.077117 L15.6102398,17.077117 C15.1515127,18.2044125 14.5403746,19.2646628 13.7820553,20.2251248 C13.1746527,20.4075502 12.5388599,20.5151345 11.8836421,20.5463183 L11.8836421,17.077117 Z M11.8836421,12.3808322 L16.5799919,12.3808322 C16.5441305,13.7349901 16.3080429,15.0501682 15.8896599,16.2975215 L11.8836421,16.2975215 L11.8836421,12.3808322 Z M11.8836421,7.67441297 L15.8694877,7.67441297 C16.2953419,8.92410493 16.5366593,10.2424013 16.5777505,11.6012367 L11.8836421,11.6012367 L11.8836421,7.67441297 Z M11.8836421,3.45368135 C12.5269061,3.48486518 13.149998,3.58855142 13.7469409,3.76551966 C14.5075016,4.7205245 15.120881,5.774538 15.5840908,6.89559674 L11.8836421,6.89559674 L11.8836421,3.45368135 Z M18.0928956,6.89559674 L16.3954557,6.89559674 C16.0428185,5.97957172 15.5938038,5.10486527 15.0543885,4.28395092 C16.2594812,4.88891724 17.3002091,5.78779116 18.0928956,6.89559674 Z M18.590472,7.67441297 C19.2464369,8.83756981 19.6439008,10.1730173 19.7074053,11.6012367 L17.3248633,11.6012367 C17.2867605,10.2470789 17.0626267,8.92878251 16.6629215,7.67441297 L18.590472,7.67441297 Z M18.6069092,16.2975215 L16.6823472,16.2975215 C17.0760756,15.0454906 17.2934853,13.7303125 17.3271054,12.3808322 L19.7089003,12.3808322 C19.6483842,13.8035945 19.2568972,15.1359237 18.6069092,16.2975215 Z M15.0880086,19.6988976 C15.6244355,18.8748649 16.0659791,17.9954808 16.4156278,17.077117 L18.1130678,17.077117 C17.3248639,18.1872614 16.2893658,19.0900333 15.0880086,19.6988976 Z M11.1365298,6.89559674 L7.43383962,6.89559674 C7.89704944,5.774538 8.5104289,4.7205245 9.27098955,3.76551966 C9.86867964,3.58855142 10.4925187,3.48408559 11.1365298,3.45368135 L11.1365298,6.89559674 Z M11.1365298,11.6012367 L6.44017996,11.6012367 C6.48127115,10.2431809 6.72258852,8.92410493 7.1484427,7.67441297 L11.1365298,7.67441297 L11.1365298,11.6012367 Z M11.1365298,16.2975215 L7.12827058,16.2975215 C6.70988752,15.0501682 6.47379993,13.7349901 6.43793853,12.3808322 L11.1365298,12.3808322 L11.1365298,16.2975215 Z M11.1365298,20.5463183 C10.4805649,20.5151345 9.84402489,20.4083298 9.2358752,20.2251248 C8.47755587,19.2646628 7.86641773,18.2044125 7.40694346,17.077117 L11.1365298,17.077117 L11.1365298,20.5463183 Z M4.90486336,17.077117 L6.60230328,17.077117 C6.951952,17.9954808 7.39274846,18.8748649 7.92917533,19.6988976 C6.72856532,19.0892537 5.69306719,18.1872614 4.90486336,17.077117 Z M4.41102203,16.2975215 C3.76103409,15.1359237 3.36954711,13.8035945 3.30903099,12.3808322 L5.69082587,12.3808322 C5.72444594,13.7303125 5.94185569,15.0454906 6.33483691,16.2975215 L4.41102203,16.2975215 Z M4.42745842,7.67441297 L6.35500894,7.67441297 C5.9553037,8.92878251 5.73116992,10.2470789 5.69306718,11.6012367 L3.30977796,11.6012367 C3.37402964,10.1730173 3.77074644,8.83756981 4.42745842,7.67441297 Z M7.9635426,4.28395092 C7.42412728,5.10486527 6.9751126,5.97957172 6.62247544,6.89559674 L4.92503557,6.89559674 C5.71772206,5.78779116 6.75844994,4.88813764 7.9635426,4.28395092 Z M1.796875,12.0003898 C1.796875,17.5924302 6.14880581,22.125 11.5093386,22.125 C16.8676301,22.125 21.2218022,17.5924302 21.2218022,12.0003898 C21.2218022,6.40834937 16.8676301,1.875 11.5093386,1.875 C6.14880581,1.875 1.796875,6.40834937 1.796875,12.0003898 Z" id="Fill-1"></path>
                        </g>
                    </g>
                </g>
            </g>
        </g>
    </g>
</svg>